<svg id="Sun--Streamline-Openmoji" viewBox="0 0 32 32" xmlns="http://www.w3.org/2000/svg" height="32" width="32">
  <desc>
    Sun Streamline Emoji: https://streamlinehq.com
  </desc>
  <g id="color">
    <path fill="#fcea2b" stroke="none" d="m31.17417777777778 16 -5.400222222222221 2.620888888888889 3.3678666666666666 4.969377777777778 -5.9887999999999995 -0.4369333333333333 0.4368888888888889 5.988666666666667 -4.9692 -3.368L16 31.17417777777778l-2.620888888888889 -5.400222222222221 -4.969377777777778 3.3678666666666666 0.4369333333333333 -5.9887999999999995 -5.988666666666667 0.4368888888888889 3.368 -4.9692L0.8258222222222222 16l5.400222222222221 -2.620888888888889 -3.3678666666666666 -4.969377777777778 5.9887999999999995 0.4369333333333333 -0.4368888888888889 -5.988666666666667 4.9692 3.368L16 0.8258222222222222l2.620888888888889 5.400222222222221 4.969377777777778 -3.3678666666666666 -0.4369333333333333 5.9887999999999995 5.988666666666667 -0.4368888888888889 -3.368 4.9692Z" stroke-width="0.4444"></path>
  </g>
  <g id="hair"></g>
  <g id="skin"></g>
  <g id="skin-shadow"></g>
  <g id="line">
    <path fill="none" stroke="#000000" stroke-linecap="round" stroke-linejoin="round" stroke-miterlimit="10" stroke-width="0.8889" d="M5.971066666666666 15.97471111111111c0 7.720266666666666 8.357422222222223 12.545422222222221 15.043377777777778 8.685288888888888 3.102977777777778 -1.7914666666666665 5.014488888888889 -5.102311111111111 5.014488888888889 -8.685288888888888 0 -7.720266666666666 -8.357466666666667 -12.545466666666666 -15.043377777777778 -8.685288888888888 -3.102977777777778 1.7914666666666665 -5.014488888888889 5.102311111111111 -5.014488888888889 8.685288888888888"></path>
    <path fill="none" stroke="#000000" stroke-linecap="round" stroke-linejoin="round" stroke-miterlimit="10" stroke-width="0.8889" d="m31.17417777777778 16 -5.400222222222221 2.620888888888889 3.3678666666666666 4.969377777777778 -5.9887999999999995 -0.4369333333333333 0.4368888888888889 5.988666666666667 -4.9692 -3.368L16 31.17417777777778l-2.620888888888889 -5.400222222222221 -4.969377777777778 3.3678666666666666 0.4369333333333333 -5.9887999999999995 -5.988666666666667 0.4368888888888889 3.368 -4.9692L0.8258222222222222 16l5.400222222222221 -2.620888888888889 -3.3678666666666666 -4.969377777777778 5.9887999999999995 0.4369333333333333 -0.4368888888888889 -5.988666666666667 4.9692 3.368L16 0.8258222222222222l2.620888888888889 5.400222222222221 4.969377777777778 -3.3678666666666666 -0.4369333333333333 5.9887999999999995 5.988666666666667 -0.4368888888888889 -3.368 4.9692Z"></path>
  </g>
</svg>