<svg viewBox="0 0 64 64" xmlns="http://www.w3.org/2000/svg" id="Cloud-1--Streamline-Emoji" height="64" width="64">
  <desc>
    Cloud 1 Streamline Emoji: https://streamlinehq.com
  </desc>
  <path d="M12.493333333333332 57.45333333333333a19.506666666666668 2.5466666666666664 0 1 0 39.013333333333335 0 19.506666666666668 2.5466666666666664 0 1 0 -39.013333333333335 0Z" fill="#45413c" opacity=".15" stroke-width="1"></path>
  <path d="M57.693333333333335 36.54666666666667a8.12 8.12 0 0 0 -4.866666666666666 -7.4399999999999995 8.933333333333334 8.933333333333334 0 0 0 0.30666666666666664 -2.32A9.106666666666666 9.106666666666666 0 0 0 44 17.68a8.893333333333333 8.893333333333333 0 0 0 -3.44 0.6799999999999999 13.573333333333332 13.573333333333332 0 0 0 -26.946666666666665 2.28l0 0.9333333333333332a12 12 0 0 0 4.706666666666666 23.093333333333334h31.29333333333333a8.12 8.12 0 0 0 8.079999999999998 -8.12Z" fill="#ffffff" stroke-width="1"></path>
  <path d="M49.61333333333333 38.946666666666665H18.32A12 12 0 0 1 6.666666666666666 29.786666666666665a12 12 0 0 0 11.653333333333332 14.879999999999999h31.29333333333333a8.12 8.12 0 0 0 7.56 -10.986666666666666 8.133333333333333 8.133333333333333 0 0 1 -7.56 5.266666666666667Z" fill="#f0f0f0" stroke-width="1"></path>
  <path d="M57.693333333333335 36.54666666666667a8.12 8.12 0 0 0 -4.866666666666666 -7.4399999999999995 8.933333333333334 8.933333333333334 0 0 0 0.30666666666666664 -2.32A9.106666666666666 9.106666666666666 0 0 0 44 17.68a8.893333333333333 8.893333333333333 0 0 0 -3.44 0.6799999999999999 13.573333333333332 13.573333333333332 0 0 0 -26.946666666666665 2.28l0 0.9333333333333332a12 12 0 0 0 4.706666666666666 23.093333333333334h31.29333333333333a8.12 8.12 0 0 0 8.079999999999998 -8.12Z" fill="none" stroke="#45413c" stroke-linecap="round" stroke-linejoin="round" stroke-width="1"></path>
  <path d="M40.599999999999994 18.36a10.173333333333332 10.173333333333332 0 0 0 -5.493333333333333 8.653333333333332" fill="none" stroke="#45413c" stroke-linecap="round" stroke-linejoin="round" stroke-width="1"></path>
</svg>