<svg viewBox="0 0 64 64" xmlns="http://www.w3.org/2000/svg" id="Umbrella-With-Rain-Drops--Streamline-Emoji" height="64" width="64">
  <desc>
    Umbrella With Rain Drops Streamline Emoji: https://streamlinehq.com
  </desc>
  <path d="M15.84 60.56a16.159999999999997 2.1066666666666665 0 1 0 32.31999999999999 0 16.159999999999997 2.1066666666666665 0 1 0 -32.31999999999999 0Z" fill="#45413c" opacity=".15" stroke-width="1"></path>
  <path d="M32 4.666666666666666a1.6933333333333334 1.6933333333333334 0 0 0 -1.6933333333333334 1.6933333333333334v48a2.013333333333333 2.013333333333333 0 0 1 -4 0v-1.48a1.6933333333333334 1.6933333333333334 0 0 0 -3.3866666666666667 0v1.4266666666666667a5.333333333333333 5.333333333333333 0 1 0 10.786666666666665 0v-48A1.6933333333333334 1.6933333333333334 0 0 0 32 4.666666666666666Z" fill="#debb7e" stroke-width="1"></path>
  <path d="M30.306666666666665 26.16h3.3866666666666667v12.64h-3.3866666666666667z" fill="#b89558" stroke-width="1"></path>
  <path d="M30.306666666666665 6.359999999999999v48a2 2 0 0 1 -2.013333333333333 2h0a2 2 0 0 1 -2 -2v-1.48a1.6933333333333334 1.6933333333333334 0 0 0 -1.6933333333333334 -1.6933333333333334h0a1.6933333333333334 1.6933333333333334 0 0 0 -1.6933333333333334 1.6933333333333334v1.4266666666666667a5.3999999999999995 5.3999999999999995 0 0 0 5.3999999999999995 5.3999999999999995h0a5.3999999999999995 5.3999999999999995 0 0 0 5.333333333333333 -5.3999999999999995v-48A1.6933333333333334 1.6933333333333334 0 0 0 32 4.666666666666666h0a1.6933333333333334 1.6933333333333334 0 0 0 -1.6933333333333334 1.6933333333333334Z" fill="none" stroke="#45413c" stroke-linecap="round" stroke-linejoin="round" stroke-width="1"></path>
  <path d="M12 30.21333333333333a8 8 0 0 1 4.306666666666667 1.24 1.3333333333333333 1.3333333333333333 0 0 0 1.4133333333333333 0 8.093333333333334 8.093333333333334 0 0 1 8.613333333333333 0 1.3333333333333333 1.3333333333333333 0 0 0 1.4133333333333333 0 8.093333333333334 8.093333333333334 0 0 1 8.613333333333333 0 1.3333333333333333 1.3333333333333333 0 0 0 1.4133333333333333 0 8.093333333333334 8.093333333333334 0 0 1 8.613333333333333 0 1.3333333333333333 1.3333333333333333 0 0 0 1.4133333333333333 0 8 8 0 0 1 4.199999999999999 -1.24 7.773333333333333 7.773333333333333 0 0 1 2.2399999999999998 0.31999999999999995A1.3333333333333333 1.3333333333333333 0 0 0 56 28.906666666666666a24.493333333333332 24.493333333333332 0 0 0 -48 0 1.3333333333333333 1.3333333333333333 0 0 0 1.7066666666666666 1.6266666666666665A7.773333333333333 7.773333333333333 0 0 1 12 30.21333333333333Z" fill="#bf8df2" stroke-width="1"></path>
  <path d="M32 14.666666666666666a26.119999999999997 26.119999999999997 0 0 1 24 14.933333333333332 1.3333333333333333 1.3333333333333333 0 0 0 0 -0.7066666666666667 24.493333333333332 24.493333333333332 0 0 0 -48 0 1.3333333333333333 1.3333333333333333 0 0 0 0 0.7066666666666667A26.119999999999997 26.119999999999997 0 0 1 32 14.666666666666666Z" fill="#dabff5" stroke-width="1"></path>
  <path d="M12 30.21333333333333a8 8 0 0 1 4.306666666666667 1.24 1.3333333333333333 1.3333333333333333 0 0 0 1.4133333333333333 0 8.093333333333334 8.093333333333334 0 0 1 8.613333333333333 0 1.3333333333333333 1.3333333333333333 0 0 0 1.4133333333333333 0 8.093333333333334 8.093333333333334 0 0 1 8.613333333333333 0 1.3333333333333333 1.3333333333333333 0 0 0 1.4133333333333333 0 8.093333333333334 8.093333333333334 0 0 1 8.613333333333333 0 1.3333333333333333 1.3333333333333333 0 0 0 1.4133333333333333 0 8 8 0 0 1 4.199999999999999 -1.24 7.773333333333333 7.773333333333333 0 0 1 2.2399999999999998 0.31999999999999995A1.3333333333333333 1.3333333333333333 0 0 0 56 28.906666666666666a24.493333333333332 24.493333333333332 0 0 0 -48 0 1.3333333333333333 1.3333333333333333 0 0 0 1.7066666666666666 1.6266666666666665A7.773333333333333 7.773333333333333 0 0 1 12 30.21333333333333Z" fill="none" stroke="#45413c" stroke-linecap="round" stroke-linejoin="round" stroke-width="1"></path>
  <path d="m16.56 12.853333333333333 -2.9466666666666663 -7a0.6533333333333333 0.6533333333333333 0 0 0 -0.6266666666666666 -0.41333333333333333 0.6666666666666666 0.6666666666666666 0 0 0 -0.6266666666666666 0.41333333333333333l-2.9333333333333336 7a3.8666666666666663 3.8666666666666663 0 1 0 7.133333333333333 0Z" fill="#4aeff7" stroke-width="1"></path>
  <path d="M12.986666666666666 15.306666666666667a3.84 3.84 0 0 1 -3.5733333333333333 -2.413333333333333 3.8666666666666663 3.8666666666666663 0 1 0 7.16 0 3.8533333333333335 3.8533333333333335 0 0 1 -3.5866666666666664 2.413333333333333Z" fill="#00dfeb" stroke-width="1"></path>
  <path d="m16.56 12.853333333333333 -2.9466666666666663 -7a0.6533333333333333 0.6533333333333333 0 0 0 -0.6266666666666666 -0.41333333333333333 0.6666666666666666 0.6666666666666666 0 0 0 -0.6266666666666666 0.41333333333333333l-2.9333333333333336 7a3.8666666666666663 3.8666666666666663 0 1 0 7.133333333333333 0Z" fill="none" stroke="#45413c" stroke-width="1"></path>
  <path d="M28.119999999999997 20.28 25.186666666666667 13.333333333333332a0.6666666666666666 0.6666666666666666 0 0 0 -0.6266666666666666 -0.41333333333333333 0.6399999999999999 0.6399999999999999 0 0 0 -0.5599999999999999 0.41333333333333333l-2.9466666666666663 7a3.8666666666666663 3.8666666666666663 0 1 0 7.133333333333333 0Z" fill="#4aeff7" stroke-width="1"></path>
  <path d="M24.560000000000002 22.733333333333334a3.84 3.84 0 0 1 -3.5866666666666664 -2.413333333333333 3.8666666666666663 3.8666666666666663 0 1 0 7.16 0 3.84 3.84 0 0 1 -3.5733333333333333 2.413333333333333Z" fill="#00dfeb" stroke-width="1"></path>
  <path d="M28.119999999999997 20.28 25.186666666666667 13.333333333333332a0.6666666666666666 0.6666666666666666 0 0 0 -0.6266666666666666 -0.41333333333333333 0.6399999999999999 0.6399999999999999 0 0 0 -0.5599999999999999 0.41333333333333333l-2.9466666666666663 7a3.8666666666666663 3.8666666666666663 0 1 0 7.133333333333333 0Z" fill="none" stroke="#45413c" stroke-width="1"></path>
  <path d="m43.30666666666666 9.053333333333333 -2.9333333333333336 -7a0.6799999999999999 0.6799999999999999 0 0 0 -1.2533333333333332 0l-2.9333333333333336 7a3.8666666666666663 3.8666666666666663 0 1 0 7.119999999999999 0Z" fill="#4aeff7" stroke-width="1"></path>
  <path d="M39.74666666666666 11.506666666666668a3.8666666666666663 3.8666666666666663 0 0 1 -3.5866666666666664 -2.413333333333333 3.8666666666666663 3.8666666666666663 0 1 0 7.173333333333333 0 3.8666666666666663 3.8666666666666663 0 0 1 -3.5866666666666664 2.413333333333333Z" fill="#00dfeb" stroke-width="1"></path>
  <path d="m43.30666666666666 9.053333333333333 -2.9333333333333336 -7a0.6799999999999999 0.6799999999999999 0 0 0 -1.2533333333333332 0l-2.9333333333333336 7a3.8666666666666663 3.8666666666666663 0 1 0 7.119999999999999 0Z" fill="none" stroke="#45413c" stroke-width="1"></path>
  <path d="m54.53333333333333 18.119999999999997 -2.9333333333333336 -6.986666666666666a0.6799999999999999 0.6799999999999999 0 0 0 -0.6266666666666666 -0.4666666666666666 0.6666666666666666 0.6666666666666666 0 0 0 -0.6266666666666666 0.42666666666666664l-2.9466666666666663 6.986666666666666a3.8666666666666663 3.8666666666666663 0 1 0 7.133333333333333 0Z" fill="#4aeff7" stroke-width="1"></path>
  <path d="M50.97333333333333 20.586666666666666a3.88 3.88 0 0 1 -3.5866666666666664 -2.413333333333333 3.8666666666666663 3.8666666666666663 0 1 0 7.16 0 3.8533333333333335 3.8533333333333335 0 0 1 -3.5733333333333333 2.413333333333333Z" fill="#00dfeb" stroke-width="1"></path>
  <path d="m54.53333333333333 18.119999999999997 -2.9333333333333336 -6.986666666666666a0.6799999999999999 0.6799999999999999 0 0 0 -0.6266666666666666 -0.4666666666666666 0.6666666666666666 0.6666666666666666 0 0 0 -0.6266666666666666 0.42666666666666664l-2.9466666666666663 6.986666666666666a3.8666666666666663 3.8666666666666663 0 1 0 7.133333333333333 0Z" fill="none" stroke="#45413c" stroke-width="1"></path>
</svg>