<svg viewBox="0 0 64 64" xmlns="http://www.w3.org/2000/svg" id="Snowflake--Streamline-Emoji" height="64" width="64">
  <desc>
    Snowflake Streamline Emoji: https://streamlinehq.com
  </desc>
  <path d="M16.666666666666664 60.666666666666664a15.333333333333332 2 0 1 0 30.666666666666664 0 15.333333333333332 2 0 1 0 -30.666666666666664 0Z" fill="#45413c" opacity=".15" stroke-width="1"></path>
  <path d="M62.48 7.0266666666666655a1.7333333333333334 1.7333333333333334 0 0 0 0.6266666666666666 -2.3466666666666667A1.7066666666666666 1.7066666666666666 0 0 0 60.76 4l-2.88 1.7066666666666666V2.3866666666666667a1.72 1.72 0 0 0 -3.44 0v3.3200000000000003L51.56 4a1.72 1.72 0 0 0 -1.72 2.973333333333333l2.88 1.6533333333333333 -2.88 1.72A1.72 1.72 0 0 0 51.56 13.333333333333332l2.88 -1.6533333333333333v3.3200000000000003a1.72 1.72 0 0 0 3.44 0v-3.333333333333333L60.76 13.333333333333332a1.7066666666666666 1.7066666666666666 0 0 0 2.3466666666666667 -0.6266666666666666 1.7333333333333334 1.7333333333333334 0 0 0 -0.6266666666666666 -2.3466666666666667L59.6 8.68Z" fill="#ffffff" stroke="#45413c" stroke-linecap="round" stroke-linejoin="round" stroke-width="1"></path>
  <path d="M11.879999999999999 9.946666666666665a1.4266666666666667 1.4266666666666667 0 0 0 -1.4266666666666667 -2.466666666666667l-2.3866666666666667 1.3333333333333333V6.093333333333334a1.44 1.44 0 0 0 -2.8666666666666663 0v2.76l-2.3866666666666667 -1.3333333333333333A1.4266666666666667 1.4266666666666667 0 1 0 1.3333333333333333 9.946666666666665l2.3866666666666667 1.3333333333333333L1.3333333333333333 12.719999999999999a1.4266666666666667 1.4266666666666667 0 1 0 1.4266666666666667 2.466666666666667l2.3866666666666667 -1.3333333333333333v2.76a1.44 1.44 0 0 0 2.8666666666666663 0v-2.8l2.3866666666666667 1.3333333333333333a1.4266666666666667 1.4266666666666667 0 1 0 1.48 -2.4266666666666667l-2.3866666666666667 -1.3333333333333333Z" fill="#ffffff" stroke="#45413c" stroke-linecap="round" stroke-linejoin="round" stroke-width="1"></path>
  <path d="M60.61333333333333 53.33333333333333a1.4266666666666667 1.4266666666666667 0 1 0 -1.4266666666666667 -2.466666666666667l-2.3866666666666667 1.3333333333333333v-2.7733333333333334a1.44 1.44 0 0 0 -2.8666666666666663 0v2.76l-2.3866666666666667 -1.3333333333333333A1.4266666666666667 1.4266666666666667 0 0 0 50.120000000000005 53.33333333333333l2.3866666666666667 1.3333333333333333 -2.3866666666666667 1.3333333333333333a1.4266666666666667 1.4266666666666667 0 0 0 1.4266666666666667 2.466666666666667l2.3866666666666667 -1.3333333333333333v2.76a1.44 1.44 0 0 0 2.8666666666666663 0v-2.7466666666666666l2.3866666666666667 1.3333333333333333A1.4266666666666667 1.4266666666666667 0 1 0 60.61333333333333 56l-2.3866666666666667 -1.3333333333333333Z" fill="#ffffff" stroke="#45413c" stroke-linecap="round" stroke-linejoin="round" stroke-width="1"></path>
  <path d="M52.213333333333324 43.666666666666664a2.6666666666666665 2.6666666666666665 0 0 0 -0.9866666666666666 -3.6666666666666665l-3.893333333333333 -2.2266666666666666 2.16 -0.5866666666666667a2 2 0 0 0 -1.0266666666666666 -3.8533333333333335l-6.04 1.6133333333333333 -3.093333333333333 -1.7866666666666666a1.3333333333333333 1.3333333333333333 0 0 1 0 -2.32l3.093333333333333 -1.7866666666666666L48.46666666666667 30.666666666666664a2 2 0 1 0 1.0266666666666666 -3.8533333333333335l-2.16 -0.5866666666666667L51.22666666666667 24a2.6666666666666665 2.6666666666666665 0 1 0 -2.6666666666666665 -4.613333333333333l-3.893333333333333 2.2266666666666666 0.5733333333333333 -2.173333333333333a2 2 0 0 0 -3.9066666666666667 -1.0266666666666666l-1.6266666666666665 6.0266666666666655 -3.0399999999999996 1.7866666666666666a1.3333333333333333 1.3333333333333333 0 0 1 -2 -1.16v-3.5733333333333333l4.413333333333333 -4.413333333333333a2 2 0 0 0 -2.8266666666666667 -2.8266666666666667L34.666666666666664 15.84V11.333333333333332a2.6666666666666665 2.6666666666666665 0 0 0 -5.333333333333333 0v4.506666666666666l-1.5866666666666664 -1.5866666666666664a2 2 0 0 0 -2.8266666666666667 2.8266666666666667L29.333333333333332 21.493333333333332v3.5733333333333333a1.3333333333333333 1.3333333333333333 0 0 1 -2 1.16l-3.093333333333333 -1.7866666666666666L22.666666666666664 18.413333333333334a2 2 0 0 0 -3.8533333333333335 1.0266666666666666l0.5733333333333333 2.173333333333333 -3.893333333333333 -2.253333333333333a2.6666666666666665 2.6666666666666665 0 1 0 -2.6666666666666665 4.613333333333333l3.893333333333333 2.253333333333333 -2.16 0.5866666666666667a2 2 0 0 0 0.9733333333333333 3.8533333333333335l6.04 -1.6133333333333333 3.093333333333333 1.7866666666666666a1.3333333333333333 1.3333333333333333 0 0 1 0 2.32l-3.093333333333333 1.7866666666666666L15.533333333333333 33.33333333333333a2 2 0 1 0 -1.0266666666666666 3.8533333333333335l2.16 0.5866666666666667L12.773333333333333 40a2.6666666666666665 2.6666666666666665 0 1 0 2.6666666666666665 4.613333333333333l3.893333333333333 -2.253333333333333 -0.5733333333333333 2.173333333333333a2 2 0 0 0 3.8533333333333335 1.0266666666666666l1.6266666666666665 -6.0266666666666655 3.093333333333333 -1.7866666666666666a1.3333333333333333 1.3333333333333333 0 0 1 2 1.16v3.5733333333333333l-4.413333333333333 4.413333333333333a2 2 0 0 0 2.8266666666666667 2.8266666666666667L29.333333333333332 48.16v4.506666666666666a2.6666666666666665 2.6666666666666665 0 0 0 5.333333333333333 0v-4.506666666666666l1.5866666666666664 1.5866666666666664a2 2 0 1 0 2.8266666666666667 -2.8266666666666667L34.666666666666664 42.50666666666666V38.93333333333333a1.3333333333333333 1.3333333333333333 0 0 1 2 -1.16l3.093333333333333 1.7866666666666666L41.33333333333333 45.58666666666666a2 2 0 1 0 3.8533333333333335 -1.0266666666666666l-0.5733333333333333 -2.173333333333333 3.893333333333333 2.253333333333333a2.6666666666666665 2.6666666666666665 0 0 0 3.706666666666666 -0.9733333333333333Z" fill="#b8ecff" stroke-width="1"></path>
  <path d="m48.56 19.36 -3.893333333333333 2.253333333333333 0.5733333333333333 -2.173333333333333a2 2 0 0 0 -3.9066666666666667 -1.0266666666666666l-1.6266666666666665 6.0266666666666655 -3.0399999999999996 1.7866666666666666a1.3333333333333333 1.3333333333333333 0 0 1 -2 -1.16v-3.5733333333333333l4.413333333333333 -4.413333333333333a2 2 0 0 0 -2.8266666666666667 -2.8266666666666667L34.666666666666664 15.84V11.333333333333332a2.6666666666666665 2.6666666666666665 0 0 0 -5.333333333333333 0v4.506666666666666l-1.5866666666666664 -1.5866666666666664a2 2 0 0 0 -2.8266666666666667 2.8266666666666667L29.333333333333332 21.493333333333332v3.5733333333333333a1.3333333333333333 1.3333333333333333 0 0 1 -2 1.16l-3.093333333333333 -1.7866666666666666L22.666666666666664 18.413333333333334a2 2 0 0 0 -3.8533333333333335 1.0266666666666666l0.5733333333333333 2.173333333333333 -3.893333333333333 -2.253333333333333a2.6666666666666665 2.6666666666666665 0 1 0 -2.6666666666666665 4.613333333333333l3.893333333333333 2.253333333333333 -2.16 0.5866666666666667a2 2 0 0 0 0.9733333333333333 3.8533333333333335l6.04 -1.6133333333333333 3.093333333333333 1.7866666666666666a1.3333333333333333 1.3333333333333333 0 0 1 0 2.32l-3.093333333333333 1.7866666666666666L15.533333333333333 33.33333333333333a2 2 0 1 0 -1.0266666666666666 3.8533333333333335l2.16 0.5866666666666667L12.773333333333333 40a2.6666666666666665 2.6666666666666665 0 0 0 -0.9866666666666666 3.6399999999999997l40.42666666666666 -23.333333333333332a2.6666666666666665 2.6666666666666665 0 0 0 -3.6533333333333333 -0.9466666666666665Z" fill="#ffffff" stroke-width="1"></path>
  <path d="M52.213333333333324 43.666666666666664a2.6666666666666665 2.6666666666666665 0 0 0 -0.9866666666666666 -3.6666666666666665l-3.893333333333333 -2.2266666666666666 2.16 -0.5866666666666667a2 2 0 0 0 -1.0266666666666666 -3.8533333333333335l-6.04 1.6133333333333333 -3.093333333333333 -1.7866666666666666a1.3333333333333333 1.3333333333333333 0 0 1 0 -2.32l3.093333333333333 -1.7866666666666666L48.46666666666667 30.666666666666664a2 2 0 1 0 1.0266666666666666 -3.8533333333333335l-2.16 -0.5866666666666667L51.22666666666667 24a2.6666666666666665 2.6666666666666665 0 1 0 -2.6666666666666665 -4.613333333333333l-3.893333333333333 2.2266666666666666 0.5733333333333333 -2.173333333333333a2 2 0 0 0 -3.9066666666666667 -1.0266666666666666l-1.6266666666666665 6.0266666666666655 -3.0399999999999996 1.7866666666666666a1.3333333333333333 1.3333333333333333 0 0 1 -2 -1.16v-3.5733333333333333l4.413333333333333 -4.413333333333333a2 2 0 0 0 -2.8266666666666667 -2.8266666666666667L34.666666666666664 15.84V11.333333333333332a2.6666666666666665 2.6666666666666665 0 0 0 -5.333333333333333 0v4.506666666666666l-1.5866666666666664 -1.5866666666666664a2 2 0 0 0 -2.8266666666666667 2.8266666666666667L29.333333333333332 21.493333333333332v3.5733333333333333a1.3333333333333333 1.3333333333333333 0 0 1 -2 1.16l-3.093333333333333 -1.7866666666666666L22.666666666666664 18.413333333333334a2 2 0 0 0 -3.8533333333333335 1.0266666666666666l0.5733333333333333 2.173333333333333 -3.893333333333333 -2.253333333333333a2.6666666666666665 2.6666666666666665 0 1 0 -2.6666666666666665 4.613333333333333l3.893333333333333 2.253333333333333 -2.16 0.5866666666666667a2 2 0 0 0 0.9733333333333333 3.8533333333333335l6.04 -1.6133333333333333 3.093333333333333 1.7866666666666666a1.3333333333333333 1.3333333333333333 0 0 1 0 2.32l-3.093333333333333 1.7866666666666666L15.533333333333333 33.33333333333333a2 2 0 1 0 -1.0266666666666666 3.8533333333333335l2.16 0.5866666666666667L12.773333333333333 40a2.6666666666666665 2.6666666666666665 0 1 0 2.6666666666666665 4.613333333333333l3.893333333333333 -2.253333333333333 -0.5733333333333333 2.173333333333333a2 2 0 0 0 3.8533333333333335 1.0266666666666666l1.6266666666666665 -6.0266666666666655 3.093333333333333 -1.7866666666666666a1.3333333333333333 1.3333333333333333 0 0 1 2 1.16v3.5733333333333333l-4.413333333333333 4.413333333333333a2 2 0 0 0 2.8266666666666667 2.8266666666666667L29.333333333333332 48.16v4.506666666666666a2.6666666666666665 2.6666666666666665 0 0 0 5.333333333333333 0v-4.506666666666666l1.5866666666666664 1.5866666666666664a2 2 0 1 0 2.8266666666666667 -2.8266666666666667L34.666666666666664 42.50666666666666V38.93333333333333a1.3333333333333333 1.3333333333333333 0 0 1 2 -1.16l3.093333333333333 1.7866666666666666L41.33333333333333 45.58666666666666a2 2 0 1 0 3.8533333333333335 -1.0266666666666666l-0.5733333333333333 -2.173333333333333 3.893333333333333 2.253333333333333a2.6666666666666665 2.6666666666666665 0 0 0 3.706666666666666 -0.9733333333333333Z" fill="none" stroke="#45413c" stroke-linecap="round" stroke-linejoin="round" stroke-width="1"></path>
</svg>